<svg width="571" height="347" viewBox="0 0 571 347" fill="none" xmlns="http://www.w3.org/2000/svg">
<path d="M361.058 38.2518V110.858L313.778 38.2796V0H311.456V102.742L259.734 0H257.224V110.834L209.944 38.2518H207.639V130.412H209.944V57.804L257.224 130.388V130.412H257.24H259.547V27.6685L311.458 130.412H313.763H313.78V57.8319L361.06 130.412H363.367V38.2518H361.06H361.058Z" fill="#F5F5D2"/>
<path d="M3.44764 182.58L74.2066 264.709V182.58H77.6543V286.828H74.2066L3.44764 204.694V286.828H0V182.58H3.44764Z" fill="white"/>
<path d="M94.439 182.58H109.882V286.828H94.439V182.58Z" fill="white"/>
<path d="M185.135 286.83C184.538 286.243 183.436 284.915 181.839 282.847C180.238 280.783 178.392 278.327 176.29 275.476C174.193 272.623 171.945 269.459 169.546 265.966C167.146 262.474 164.849 258.983 162.651 255.496C160.451 252.006 158.427 248.588 156.58 245.244C154.729 241.909 153.304 238.909 152.306 236.251L155.456 235.513C156.151 237.486 157.378 239.004 159.125 240.083C160.874 241.172 163.1 241.707 165.799 241.707C169.095 241.707 172.071 241.021 174.72 239.645C177.366 238.266 179.641 236.397 181.54 234.038C183.436 231.677 184.86 228.931 185.814 225.781C186.76 222.639 187.237 219.244 187.237 215.61C187.237 211.475 186.56 207.596 185.211 203.957C183.865 200.323 181.839 197.172 179.14 194.521C176.441 191.863 173.043 189.758 168.949 188.177C164.849 186.608 160.05 185.818 154.554 185.818H144.063V286.828H128.622V182.58H156.656C164.449 182.58 171.197 183.37 176.892 184.941C182.588 186.511 187.285 188.701 190.982 191.499C194.68 194.298 197.428 197.62 199.225 201.454C201.028 205.29 201.924 209.465 201.924 213.986C201.924 218.311 201.176 222.37 199.676 226.152C198.177 229.935 196.027 233.254 193.23 236.1C190.433 238.959 187.108 241.214 183.263 242.885C179.412 244.558 175.095 245.392 170.295 245.392C168.396 245.392 166.625 245.222 164.974 244.878C163.324 244.536 161.85 244.068 160.554 243.477C163.351 247.41 166.771 251.361 170.821 255.348C174.868 259.331 179.064 263.187 183.414 266.918C187.758 270.655 192.055 274.198 196.304 277.534C200.551 280.878 204.324 283.975 207.62 286.826H185.135V286.83Z" fill="white"/>
<path d="M228.906 182.58L262.338 265.155L295.916 182.58H299.811L256.04 288.744L211.966 182.58H228.906Z" fill="white"/>
<path d="M351.537 254.239L328.747 196.437L306.113 254.239H351.537ZM339.543 182.58L380.619 286.828H364.427L353.485 259.108H304.167L293.373 286.828H289.625L326.951 191.865L323.351 182.58H339.543Z" fill="white"/>
<path d="M396.057 182.58L466.816 264.709V182.58H470.264V286.828H466.816L396.057 204.694V286.828H392.609V182.58H396.057Z" fill="white"/>
<path d="M541.919 254.622L519.129 196.819L496.495 254.622H541.919ZM529.925 182.963L571.001 287.211H554.809L543.867 259.491H494.548L483.754 287.211H480.007L517.332 192.248L513.733 182.963H529.925Z" fill="white"/>
<path d="M106.464 338.996H103.818V316.728L106.464 315.656V338.996Z" fill="white"/>
<path d="M122.65 334.088C122.65 335.453 122.895 336.466 123.389 337.127C123.881 337.789 124.631 338.121 125.639 338.121C126.374 338.121 127.073 337.941 127.733 337.586C128.393 337.228 129.072 336.693 129.765 335.979V325.111L132.408 324.041V339.002H129.765V336.733C128.987 337.595 128.164 338.257 127.291 338.719C126.421 339.178 125.482 339.411 124.472 339.411C123.003 339.411 121.892 338.939 121.134 337.993C120.378 337.049 120 335.673 120 333.867V325.111L122.646 324.041V334.088H122.65Z" fill="white"/>
<path d="M154.737 339.002L150.485 332.704L145.414 339.002H144.66L150.169 332.23L144.878 324.418H147.997L151.934 330.214L156.624 324.418H157.382L152.28 330.686L157.885 339.002H154.737Z" fill="white"/>
<path d="M172.372 334.088C172.372 335.453 172.618 336.466 173.112 337.127C173.603 337.789 174.354 338.121 175.361 338.121C176.097 338.121 176.796 337.941 177.456 337.586C178.116 337.228 178.794 336.693 179.488 335.979V325.111L182.133 324.041V339.002H179.488V336.733C178.709 337.595 177.887 338.257 177.014 338.719C176.143 339.178 175.204 339.411 174.195 339.411C172.725 339.411 171.614 338.939 170.858 337.993C170.102 337.049 169.725 335.673 169.725 333.867V325.111L172.37 324.041V334.088H172.372Z" fill="white"/>
<path d="M205.751 325.912C205.52 326.047 205.278 326.196 205.028 326.352C204.775 326.51 204.538 326.657 204.318 326.794C204.098 326.932 203.934 327.03 203.83 327.093C203.703 326.883 203.572 326.685 203.438 326.495C203.3 326.306 203.15 326.148 202.982 326.023C202.814 325.897 202.634 325.798 202.446 325.724C202.257 325.65 202.059 325.613 201.847 325.613C201.301 325.613 200.719 325.838 200.1 326.289C199.481 326.742 198.887 327.378 198.322 328.195V339H195.674V325.111L198.322 324.041V327.251C199.033 326.309 199.863 325.537 200.806 324.938C201.753 324.34 202.666 324.041 203.546 324.041C204.091 324.041 204.59 324.171 205.043 324.433C205.494 324.695 205.897 325.091 206.256 325.615C206.15 325.678 205.982 325.776 205.751 325.914V325.912Z" fill="white"/>
<path d="M220.487 347H217.15L223.447 339.096L216.771 324.418H219.731L224.863 336.04L230.057 324.418H230.688L220.485 347H220.487Z" fill="white"/>
<path d="M270.085 325.912C269.854 326.047 269.612 326.196 269.362 326.352C269.109 326.51 268.872 326.657 268.652 326.794C268.432 326.932 268.268 327.03 268.164 327.093C268.037 326.883 267.906 326.685 267.773 326.495C267.634 326.306 267.484 326.148 267.316 326.023C267.148 325.897 266.968 325.798 266.78 325.724C266.591 325.65 266.393 325.613 266.183 325.613C265.637 325.613 265.055 325.838 264.436 326.289C263.817 326.742 263.223 327.378 262.657 328.195V339H260.01V325.111L262.657 324.041V327.251C263.369 326.309 264.201 325.537 265.142 324.938C266.088 324.34 267.002 324.041 267.882 324.041C268.427 324.041 268.926 324.171 269.379 324.433C269.83 324.695 270.233 325.091 270.592 325.615C270.486 325.678 270.318 325.776 270.087 325.914L270.085 325.912Z" fill="white"/>
<path d="M292.6 331C292.6 330.077 292.484 329.226 292.253 328.447C292.022 327.671 291.713 326.998 291.325 326.434C290.935 325.865 290.469 325.425 289.922 325.109C289.377 324.795 288.778 324.637 288.127 324.637C287.478 324.637 286.877 324.795 286.332 325.109C285.787 325.425 285.313 325.865 284.914 326.434C284.515 327 284.191 327.673 283.938 328.447C283.685 329.226 283.55 330.075 283.528 331H292.597H292.6ZM291.042 324.591C291.87 324.957 292.578 325.471 293.166 326.133C293.754 326.796 294.211 327.584 294.534 328.496C294.861 329.408 295.024 330.432 295.024 331.567H283.561C283.583 332.575 283.738 333.493 284.032 334.324C284.326 335.152 284.735 335.867 285.26 336.466C285.785 337.064 286.402 337.526 287.118 337.852C287.831 338.177 288.619 338.338 289.48 338.338C290.613 338.338 291.641 338.069 292.565 337.534C293.49 336.999 294.246 336.259 294.832 335.314L295.242 335.565C294.529 336.828 293.573 337.781 292.377 338.431C291.179 339.083 289.868 339.408 288.439 339.408C287.326 339.408 286.302 339.219 285.369 338.84C284.435 338.463 283.631 337.933 282.962 337.25C282.289 336.566 281.764 335.758 281.387 334.823C281.008 333.889 280.819 332.865 280.819 331.754C280.819 330.64 281.006 329.612 281.387 328.667C281.764 327.721 282.285 326.907 282.945 326.225C283.607 325.542 284.393 325.009 285.308 324.619C286.221 324.23 287.214 324.035 288.282 324.035C289.29 324.035 290.208 324.219 291.04 324.589L291.042 324.591Z" fill="white"/>
<path d="M316.564 327.314C316.228 326.474 315.725 325.833 315.054 325.393C314.381 324.951 313.605 324.732 312.721 324.732C311.819 324.732 311.079 324.936 310.501 325.345C309.924 325.755 309.636 326.285 309.636 326.937C309.636 327.314 309.747 327.65 309.965 327.946C310.187 328.237 310.495 328.518 310.895 328.78C311.292 329.042 311.763 329.295 312.312 329.534C312.858 329.778 313.464 330.023 314.137 330.275C314.725 330.506 315.327 330.764 315.947 331.048C316.566 331.331 317.134 331.661 317.649 332.039C318.163 332.418 318.581 332.858 318.908 333.361C319.234 333.867 319.398 334.465 319.398 335.156C319.398 335.788 319.256 336.363 318.973 336.889C318.688 337.417 318.274 337.861 317.727 338.229C317.182 338.595 316.531 338.886 315.775 339.094C315.019 339.304 314.17 339.41 313.224 339.41C311.9 339.41 310.689 339.2 309.586 338.779C308.484 338.359 307.491 337.697 306.611 336.794L308.626 334.558C308.795 335.21 309.04 335.799 309.366 336.323C309.689 336.848 310.074 337.287 310.516 337.645C310.956 338.004 311.449 338.281 311.993 338.479C312.538 338.68 313.128 338.779 313.758 338.779C314.743 338.779 315.542 338.554 316.15 338.102C316.76 337.651 317.063 337.036 317.063 336.259C317.063 335.799 316.943 335.384 316.703 335.015C316.461 334.649 316.135 334.316 315.725 334.021C315.315 333.729 314.849 333.456 314.326 333.203C313.799 332.951 313.253 332.709 312.688 332.479C312.015 332.183 311.37 331.895 310.75 331.611C310.131 331.327 309.578 331.007 309.098 330.651C308.615 330.292 308.231 329.895 307.948 329.454C307.665 329.014 307.523 328.498 307.523 327.911C307.523 327.323 307.658 326.792 307.933 326.318C308.205 325.846 308.6 325.442 309.112 325.107C309.626 324.771 310.251 324.509 310.987 324.319C311.721 324.13 312.538 324.035 313.442 324.035C314.701 324.035 315.79 324.208 316.701 324.555C317.614 324.903 318.343 325.401 318.888 326.051L316.559 327.31L316.564 327.314Z" fill="white"/>
<path d="M334.798 338.996H332.152V325.106L334.798 324.034V338.996ZM334.073 318.6C334.263 318.695 334.424 318.81 334.561 318.948C334.7 319.083 334.814 319.252 334.908 319.453C335.003 319.652 335.051 319.867 335.051 320.099C335.051 320.307 335.003 320.506 334.908 320.697C334.814 320.885 334.7 321.049 334.561 321.184C334.426 321.322 334.263 321.437 334.073 321.532C333.882 321.624 333.685 321.673 333.476 321.673C333.245 321.673 333.036 321.624 332.845 321.532C332.655 321.437 332.487 321.322 332.341 321.184C332.195 321.049 332.073 320.885 331.98 320.697C331.886 320.506 331.838 320.307 331.838 320.099C331.838 319.867 331.886 319.652 331.98 319.453C332.073 319.252 332.193 319.085 332.341 318.948C332.487 318.81 332.655 318.695 332.845 318.6C333.036 318.507 333.245 318.459 333.476 318.459C333.685 318.459 333.882 318.507 334.073 318.6Z" fill="white"/>
<path d="M359.171 329.58C358.962 328.069 358.492 326.871 357.77 325.989C357.045 325.106 356.137 324.666 355.045 324.666C354.351 324.666 353.717 324.844 353.139 325.201C352.56 325.556 352.056 326.052 351.628 326.68C351.198 327.31 350.859 328.068 350.619 328.948C350.377 329.83 350.257 330.785 350.257 331.814C350.257 332.844 350.377 333.784 350.619 334.634C350.861 335.485 351.213 336.208 351.675 336.806C352.137 337.404 352.677 337.867 353.298 338.192C353.917 338.519 354.603 338.681 355.361 338.681C355.718 338.681 356.063 338.651 356.4 338.588C356.734 338.524 357.067 338.452 357.391 338.367C357.716 338.283 358.032 338.211 358.335 338.146C358.638 338.082 358.918 338.053 359.171 338.053V329.58ZM361.816 339.409C361.774 339.366 361.7 339.292 361.596 339.188C361.491 339.082 361.354 338.974 361.186 338.855C361.018 338.74 360.823 338.647 360.603 338.573C360.383 338.498 360.127 338.461 359.833 338.461C359.496 338.461 359.149 338.508 358.792 338.602C358.433 338.697 358.045 338.809 357.627 338.935C357.206 339.059 356.749 339.171 356.257 339.264C355.764 339.359 355.224 339.407 354.634 339.407C353.564 339.407 352.597 339.227 351.738 338.872C350.876 338.513 350.133 338.001 349.503 337.328C348.872 336.656 348.384 335.851 348.037 334.917C347.691 333.984 347.519 332.938 347.519 331.783C347.519 330.627 347.691 329.578 348.037 328.632C348.384 327.687 348.861 326.875 349.469 326.191C350.077 325.509 350.813 324.98 351.675 324.601C352.536 324.222 353.47 324.033 354.477 324.033C355.57 324.033 356.52 324.283 357.328 324.789C358.137 325.292 358.751 325.996 359.171 326.899V316.726L361.816 315.656V339.405V339.409Z" fill="white"/>
<path d="M386.347 331C386.347 330.077 386.23 329.226 385.999 328.447C385.768 327.671 385.46 326.998 385.071 326.434C384.681 325.865 384.215 325.425 383.668 325.109C383.123 324.795 382.524 324.637 381.873 324.637C381.224 324.637 380.624 324.795 380.078 325.109C379.533 325.425 379.06 325.865 378.66 326.434C378.261 327 377.938 327.673 377.686 328.447C377.433 329.226 377.298 330.075 377.276 331H386.345H386.347ZM384.789 324.591C385.617 324.957 386.325 325.471 386.914 326.133C387.5 326.796 387.959 327.584 388.282 328.496C388.608 329.408 388.772 330.432 388.772 331.567H377.309C377.331 332.575 377.487 333.493 377.782 334.324C378.076 335.152 378.485 335.867 379.01 336.466C379.535 337.064 380.154 337.526 380.868 337.852C381.581 338.177 382.369 338.338 383.23 338.338C384.363 338.338 385.391 338.069 386.315 337.534C387.24 336.999 387.996 336.259 388.584 335.314L388.994 335.565C388.281 336.828 387.325 337.781 386.129 338.431C384.931 339.083 383.62 339.408 382.191 339.408C381.078 339.408 380.056 339.219 379.121 338.84C378.187 338.463 377.383 337.933 376.714 337.25C376.041 336.566 375.516 335.758 375.139 334.823C374.76 333.889 374.571 332.865 374.571 331.754C374.571 330.64 374.76 329.612 375.139 328.667C375.516 327.721 376.035 326.907 376.697 326.225C377.359 325.542 378.145 325.009 379.06 324.619C379.973 324.23 380.966 324.035 382.034 324.035C383.042 324.035 383.96 324.219 384.79 324.589L384.789 324.591Z" fill="white"/>
<path d="M411.446 339V330.023C411.446 328.446 411.173 327.275 410.626 326.51C410.08 325.742 409.324 325.36 408.359 325.36C407.688 325.36 407 325.553 406.296 325.941C405.594 326.331 404.886 326.892 404.17 327.628V338.998H401.525V325.107L404.17 324.035V326.839C404.969 325.938 405.819 325.243 406.721 324.762C407.625 324.279 408.548 324.035 409.494 324.035C410.165 324.035 410.785 324.163 411.352 324.414C411.92 324.665 412.402 325.042 412.8 325.547C413.199 326.051 413.513 326.692 413.746 327.468C413.975 328.245 414.092 329.159 414.092 330.209V338.996H411.446V339Z" fill="white"/>
<path d="M438.934 328.73C438.598 327.429 438.027 326.421 437.217 325.705C436.411 324.992 435.491 324.633 434.463 324.633C433.749 324.633 433.095 324.802 432.496 325.139C431.899 325.475 431.383 325.932 430.954 326.508C430.521 327.086 430.181 327.773 429.93 328.57C429.68 329.371 429.553 330.249 429.553 331.217C429.553 332.267 429.699 333.222 429.995 334.084C430.287 334.944 430.703 335.683 431.237 336.304C431.771 336.925 432.413 337.402 433.159 337.736C433.904 338.073 434.729 338.24 435.629 338.24C436.742 338.24 437.746 337.983 438.639 337.467C439.53 336.952 440.269 336.235 440.859 335.31L441.266 335.561C440.552 336.824 439.593 337.777 438.385 338.427C437.176 339.08 435.851 339.405 434.4 339.405C433.267 339.405 432.231 339.206 431.3 338.806C430.363 338.407 429.568 337.861 428.904 337.168C428.244 336.477 427.734 335.667 427.377 334.743C427.02 333.82 426.843 332.822 426.843 331.752C426.843 330.66 427.026 329.648 427.396 328.713C427.762 327.779 428.283 326.963 428.954 326.272C429.627 325.579 430.449 325.033 431.427 324.633C432.403 324.236 433.49 324.035 434.688 324.035C435.882 324.035 436.997 324.253 438.025 324.682C439.055 325.113 439.966 325.737 440.765 326.558L438.938 328.73H438.934Z" fill="white"/>
<path d="M464.536 331C464.536 330.077 464.42 329.226 464.189 328.447C463.958 327.671 463.649 326.998 463.261 326.434C462.871 325.865 462.405 325.425 461.858 325.109C461.312 324.795 460.713 324.637 460.063 324.637C459.414 324.637 458.813 324.795 458.268 325.109C457.722 325.425 457.249 325.865 456.85 326.434C456.451 327 456.127 327.673 455.876 328.447C455.622 329.226 455.487 330.075 455.465 331H464.534H464.536ZM462.978 324.591C463.806 324.957 464.514 325.471 465.104 326.133C465.69 326.796 466.148 327.584 466.472 328.496C466.799 329.408 466.962 330.432 466.962 331.567H455.499C455.521 332.575 455.676 333.493 455.972 334.324C456.266 335.152 456.674 335.867 457.199 336.466C457.724 337.064 458.344 337.526 459.057 337.852C459.771 338.177 460.558 338.338 461.42 338.338C462.553 338.338 463.581 338.069 464.505 337.534C465.429 336.999 466.185 336.259 466.773 335.314L467.184 335.565C466.47 336.828 465.514 337.781 464.318 338.431C463.12 339.083 461.81 339.408 460.381 339.408C459.268 339.408 458.246 339.219 457.31 338.84C456.377 338.463 455.572 337.933 454.903 337.25C454.23 336.566 453.705 335.758 453.328 334.823C452.949 333.889 452.761 332.865 452.761 331.754C452.761 330.64 452.949 329.612 453.328 328.667C453.705 327.721 454.225 326.907 454.887 326.225C455.548 325.542 456.334 325.009 457.249 324.619C458.162 324.23 459.155 324.035 460.224 324.035C461.231 324.035 462.15 324.219 462.98 324.589L462.978 324.591Z" fill="white"/>
</svg>
